<mxfile host="app.diagrams.net" agent="Mozilla/5.0 (Windows NT 10.0; Win64; x64) AppleWebKit/537.36 (KHTML, like Gecko) Chrome/130.0.0.0 Safari/537.36 Edg/130.0.0.0" version="24.8.0">
  <diagram name="Page-1" id="ietrOEi8F0ITKG4iViF2">
    <mxGraphModel dx="1426" dy="791" grid="0" gridSize="10" guides="1" tooltips="1" connect="1" arrows="1" fold="1" page="1" pageScale="1" pageWidth="850" pageHeight="1100" background="#000000" math="0" shadow="0">
      <root>
        <mxCell id="0" />
        <mxCell id="1" parent="0" />
        <mxCell id="7pY2c8zZ9M0ruejfuFtf-2" value="" style="rounded=0;whiteSpace=wrap;html=1;fillColor=#000000;strokeColor=#FFFFFF;dropTarget=1;" vertex="1" parent="1">
          <mxGeometry x="134" y="287" width="541" height="268" as="geometry" />
        </mxCell>
        <mxCell id="7pY2c8zZ9M0ruejfuFtf-3" value="" style="endArrow=none;dashed=1;html=1;rounded=0;strokeColor=#FFFFFF;" edge="1" parent="1">
          <mxGeometry width="50" height="50" relative="1" as="geometry">
            <mxPoint x="223" y="657" as="sourcePoint" />
            <mxPoint x="223" y="212" as="targetPoint" />
          </mxGeometry>
        </mxCell>
        <mxCell id="7pY2c8zZ9M0ruejfuFtf-4" value="" style="endArrow=none;dashed=1;html=1;rounded=0;strokeColor=#FFFFFF;" edge="1" parent="1">
          <mxGeometry width="50" height="50" relative="1" as="geometry">
            <mxPoint x="589" y="665" as="sourcePoint" />
            <mxPoint x="589" y="220" as="targetPoint" />
          </mxGeometry>
        </mxCell>
        <mxCell id="7pY2c8zZ9M0ruejfuFtf-6" value="&lt;font color=&quot;#ffffff&quot;&gt;&lt;u&gt;:User&lt;/u&gt;&lt;/font&gt;" style="text;html=1;align=center;verticalAlign=middle;whiteSpace=wrap;rounded=0;" vertex="1" parent="1">
          <mxGeometry x="192" y="181" width="60" height="30" as="geometry" />
        </mxCell>
        <mxCell id="7pY2c8zZ9M0ruejfuFtf-7" value="" style="rounded=0;whiteSpace=wrap;html=1;fillColor=#000000;strokeColor=#FFFFFF;" vertex="1" parent="1">
          <mxGeometry x="530" y="156" width="120" height="60" as="geometry" />
        </mxCell>
        <mxCell id="7pY2c8zZ9M0ruejfuFtf-8" value="&lt;font color=&quot;#ffffff&quot;&gt;&lt;u&gt;:System&lt;/u&gt;&lt;/font&gt;" style="text;html=1;align=center;verticalAlign=middle;whiteSpace=wrap;rounded=0;" vertex="1" parent="1">
          <mxGeometry x="560" y="171" width="60" height="30" as="geometry" />
        </mxCell>
        <mxCell id="7pY2c8zZ9M0ruejfuFtf-9" value="" style="endArrow=classic;html=1;rounded=0;strokeColor=#FFFFFF;" edge="1" parent="1">
          <mxGeometry width="50" height="50" relative="1" as="geometry">
            <mxPoint x="223" y="264" as="sourcePoint" />
            <mxPoint x="592" y="264" as="targetPoint" />
          </mxGeometry>
        </mxCell>
        <mxCell id="7pY2c8zZ9M0ruejfuFtf-10" value="&lt;font color=&quot;#ffffff&quot;&gt;SelectOfferings()&lt;/font&gt;" style="text;html=1;align=center;verticalAlign=middle;whiteSpace=wrap;rounded=0;" vertex="1" parent="1">
          <mxGeometry x="369" y="234" width="60" height="30" as="geometry" />
        </mxCell>
        <mxCell id="7pY2c8zZ9M0ruejfuFtf-11" value="" style="endArrow=classic;html=1;rounded=0;strokeColor=#FFFFFF;" edge="1" parent="1">
          <mxGeometry width="50" height="50" relative="1" as="geometry">
            <mxPoint x="223" y="326" as="sourcePoint" />
            <mxPoint x="592" y="326" as="targetPoint" />
          </mxGeometry>
        </mxCell>
        <mxCell id="7pY2c8zZ9M0ruejfuFtf-12" value="&lt;font color=&quot;#ffffff&quot;&gt;Select offering(id, User)&lt;/font&gt;" style="text;html=1;align=center;verticalAlign=middle;whiteSpace=wrap;rounded=0;" vertex="1" parent="1">
          <mxGeometry x="285" y="297" width="243" height="30" as="geometry" />
        </mxCell>
        <mxCell id="7pY2c8zZ9M0ruejfuFtf-13" value="" style="endArrow=classic;html=1;rounded=0;strokeColor=#FFFFFF;dashed=1;" edge="1" parent="1">
          <mxGeometry width="50" height="50" relative="1" as="geometry">
            <mxPoint x="587" y="377" as="sourcePoint" />
            <mxPoint x="222" y="377" as="targetPoint" />
          </mxGeometry>
        </mxCell>
        <mxCell id="7pY2c8zZ9M0ruejfuFtf-14" value="&lt;font color=&quot;#ffffff&quot;&gt;&lt;span style=&quot;background-color: rgb(0, 0, 0);&quot;&gt;Booking&lt;/span&gt;&lt;/font&gt;" style="text;html=1;align=center;verticalAlign=middle;whiteSpace=wrap;rounded=0;" vertex="1" parent="1">
          <mxGeometry x="282" y="347" width="243" height="30" as="geometry" />
        </mxCell>
        <mxCell id="7pY2c8zZ9M0ruejfuFtf-15" value="" style="endArrow=classic;html=1;rounded=0;strokeColor=#FFFFFF;" edge="1" parent="1">
          <mxGeometry width="50" height="50" relative="1" as="geometry">
            <mxPoint x="222" y="419" as="sourcePoint" />
            <mxPoint x="591" y="419" as="targetPoint" />
          </mxGeometry>
        </mxCell>
        <mxCell id="7pY2c8zZ9M0ruejfuFtf-16" value="&lt;font color=&quot;#ffffff&quot;&gt;Confirm&lt;/font&gt;" style="text;html=1;align=center;verticalAlign=middle;whiteSpace=wrap;rounded=0;" vertex="1" parent="1">
          <mxGeometry x="284" y="390" width="243" height="30" as="geometry" />
        </mxCell>
        <mxCell id="7pY2c8zZ9M0ruejfuFtf-19" value="" style="endArrow=classic;html=1;rounded=0;strokeColor=#FFFFFF;" edge="1" parent="1">
          <mxGeometry width="50" height="50" relative="1" as="geometry">
            <mxPoint x="222" y="542" as="sourcePoint" />
            <mxPoint x="591" y="542" as="targetPoint" />
          </mxGeometry>
        </mxCell>
        <mxCell id="7pY2c8zZ9M0ruejfuFtf-20" value="&lt;font color=&quot;#ffffff&quot;&gt;EndBooking()&lt;/font&gt;" style="text;html=1;align=center;verticalAlign=middle;whiteSpace=wrap;rounded=0;" vertex="1" parent="1">
          <mxGeometry x="281" y="512" width="243" height="30" as="geometry" />
        </mxCell>
        <mxCell id="7pY2c8zZ9M0ruejfuFtf-28" value="" style="endArrow=classic;html=1;rounded=0;strokeColor=#FFFFFF;dashed=1;" edge="1" parent="1">
          <mxGeometry width="50" height="50" relative="1" as="geometry">
            <mxPoint x="586" y="462" as="sourcePoint" />
            <mxPoint x="221" y="462" as="targetPoint" />
          </mxGeometry>
        </mxCell>
        <mxCell id="7pY2c8zZ9M0ruejfuFtf-29" value="&lt;font color=&quot;#ffffff&quot;&gt;&lt;span style=&quot;background-color: rgb(0, 0, 0);&quot;&gt;Confirmation&lt;/span&gt;&lt;/font&gt;" style="text;html=1;align=center;verticalAlign=middle;whiteSpace=wrap;rounded=0;" vertex="1" parent="1">
          <mxGeometry x="281" y="432" width="243" height="30" as="geometry" />
        </mxCell>
        <mxCell id="7pY2c8zZ9M0ruejfuFtf-30" value="&lt;span style=&quot;color: rgb(255, 255, 255);&quot;&gt;loop&lt;/span&gt;" style="rounded=0;whiteSpace=wrap;html=1;fillColor=#000000;strokeColor=#FFFFFF;" vertex="1" parent="1">
          <mxGeometry x="134" y="287" width="54" height="34" as="geometry" />
        </mxCell>
        <mxCell id="7pY2c8zZ9M0ruejfuFtf-69" value="" style="endArrow=classic;html=1;rounded=0;strokeColor=#FFFFFF;dashed=1;" edge="1" parent="1">
          <mxGeometry width="50" height="50" relative="1" as="geometry">
            <mxPoint x="586" y="501" as="sourcePoint" />
            <mxPoint x="221" y="501" as="targetPoint" />
          </mxGeometry>
        </mxCell>
        <mxCell id="7pY2c8zZ9M0ruejfuFtf-70" value="&lt;font color=&quot;#ffffff&quot;&gt;&lt;span style=&quot;background-color: rgb(0, 0, 0);&quot;&gt;Availability&lt;/span&gt;&lt;/font&gt;" style="text;html=1;align=center;verticalAlign=middle;whiteSpace=wrap;rounded=0;" vertex="1" parent="1">
          <mxGeometry x="277.5" y="474" width="243" height="30" as="geometry" />
        </mxCell>
      </root>
    </mxGraphModel>
  </diagram>
</mxfile>
